<?xml version="1.0" encoding="UTF-8"?>
<!DOCTYPE svg PUBLIC "-//W3C//DTD SVG 1.1//EN" "http://www.w3.org/Graphics/SVG/1.1/DTD/svg11.dtd">
<!-- Creator: CorelDRAW (Wersja próbna) -->
<svg xmlns="http://www.w3.org/2000/svg" xml:space="preserve" width="6156px" height="4538px" version="1.1" style="shape-rendering:geometricPrecision; text-rendering:geometricPrecision; image-rendering:optimizeQuality; fill-rule:evenodd; clip-rule:evenodd"
viewBox="0 0 5409.01 3987.5"
 xmlns:xlink="http://www.w3.org/1999/xlink"
 xmlns:xodm="http://www.corel.com/coreldraw/odm/2003">
 <defs>
  <style type="text/css">
   <![CDATA[
    .fil0 {fill:#393185;fill-rule:nonzero}
   ]]>
  </style>
 </defs>
 <g id="Warstwa_x0020_1">
  <metadata id="CorelCorpID_0Corel-Layer"/>
  <path class="fil0" d="M1931.15 2004.5c64.04,-27.23 125.72,-54.52 188.62,-78.63 6.54,-2.51 25.16,11.5 29.99,21.71 70.18,148.43 181.5,251.46 337.44,302.83 210.01,69.19 404.92,36.2 569.7,-111.49 163.54,-146.57 219.24,-336.19 172.75,-550.2 -48.13,-221.51 -184.56,-370.67 -395.92,-451.76 -11.32,-4.34 -22.42,-9.27 -39.38,-16.32 45.17,-59.83 86.99,-115.92 129.65,-171.37 16.83,-21.88 36.4,-8.85 54.35,-0.91 188.8,83.56 329.4,217.38 418.32,404.06 160.44,336.81 71.57,749.36 -221.29,975.53 -259.33,200.27 -545.37,232.66 -846.6,97.08 -183.57,-82.63 -318.3,-224.77 -397.63,-420.53z"/>
  <path class="fil0" d="M3477.87 13.4c-26.56,40.38 -57.49,78.61 -78.67,121.64 -31.63,64.29 -76.66,82.42 -148.54,81.52 -379.02,-4.7 -758.12,-2.85 -1137.18,-3.31 -49.17,-0.06 -48.9,-0.14 -47.74,-50.42 0.99,-42.65 2.66,-85.35 1.35,-127.95 -0.81,-26.53 9.02,-35.31 34.87,-34.86 66.51,1.16 133.05,0.38 199.57,0.38 374.05,0 748.1,0 1122.15,0l47.04 0c2.38,4.33 4.77,8.66 7.15,13z"/>
  <path class="fil0" d="M3257.58 327.8c-7.34,11.06 -14.25,22.45 -22.1,33.14 -178.79,243.67 -357.97,487.05 -536.09,731.21 -16.6,22.78 -34.51,32.26 -62.43,32.28 -61.45,0.06 -122.88,3.73 -184.34,4.82 -13.8,0.25 -27.68,-4.02 -51.42,-7.77 38.51,-52.84 70.99,-98.07 104.15,-142.81 156.81,-211.57 314.05,-422.82 470.31,-634.79 14.02,-19.01 27.62,-27.86 52.23,-27.14 62.69,1.85 125.47,0.12 188.22,-0.16 12.07,-0.05 24.13,0 36.2,0 1.76,3.74 3.52,7.48 5.27,11.22z"/>
  <path class="fil0" d="M3447.24 3094.35c-5.48,2.01 -10.82,4.68 -16.47,5.9 -21.65,4.69 -26.67,9.71 -27,31.53 -0.43,28.63 -0.02,57.27 0.13,85.9 0.01,1.56 0.96,3.11 1.8,5.67l156.86 0c0,-34.85 0.97,-69.39 -0.43,-103.83 -0.64,-15.57 -15.71,-16.52 -27.72,-19.58 -4.76,-1.22 -8.92,-4.82 -13.34,-7.34 4.96,-1.98 9.89,-5.6 14.88,-5.68 34.81,-0.51 69.64,-0.46 104.45,-0.07 4.1,0.04 8.17,3.23 12.26,4.96 -3.62,2.7 -6.87,6.9 -10.9,7.86 -32.94,7.83 -35.38,10.43 -35.45,43.85 -0.11,59.52 -0.14,119.03 -0.04,178.54 0.06,31.24 3.79,35.5 33.39,42.46 4.66,1.1 8.68,4.93 13,7.51 -4.55,1.87 -9.07,5.29 -13.65,5.36 -34.83,0.47 -69.68,0.5 -104.51,0.06 -4.48,-0.05 -8.92,-3.6 -13.38,-5.53 3.85,-2.44 7.39,-6.05 11.58,-7.13 29.35,-7.51 31.3,-9.62 31.43,-39.86 0.12,-28.01 0.03,-56.02 0.03,-85.65l-159.32 0c0,35.31 -0.65,70.49 0.68,105.61 0.21,5.61 8.58,12.01 14.56,15.96 4.84,3.2 11.94,2.78 17.69,4.9 3.11,1.14 5.5,4.24 8.21,6.45 -2.94,1.82 -5.87,5.21 -8.82,5.24 -37.65,0.36 -75.3,0.37 -112.95,0.05 -3.18,-0.03 -6.34,-3.02 -9.51,-4.63 3,-2.51 5.62,-6.31 9.06,-7.33 36.47,-10.8 37.3,-11.73 37.3,-49.65 -0.01,-57.82 0.12,-115.66 -0.07,-173.49 -0.11,-32.02 -3.24,-35.28 -35.03,-42.6 -4.12,-0.94 -7.53,-4.96 -11.26,-7.56 3.99,-1.85 7.97,-5.29 11.99,-5.34 36.5,-0.42 73.01,-0.3 109.51,-0.18 3.12,0.01 6.22,1.16 9.34,1.78 0.56,1.95 1.13,3.91 1.7,5.86z"/>
  <path class="fil0" d="M556.19 3228.16c14.92,0 27.8,0.61 40.61,-0.12 31.37,-1.8 49.41,-19.33 52.29,-50.56 0.82,-8.87 1.01,-17.93 0.32,-26.81 -3.24,-41.66 -45.95,-64.9 -82.64,-44.55 -4.93,2.73 -9.97,10.3 -10.12,15.75 -0.91,34.56 -0.46,69.15 -0.46,106.29zm75.87 7.52c25.05,37.09 48.49,74.67 75.3,109.69 7.71,10.07 25.18,12.6 38.02,18.91 4.06,2 7.6,5.04 11.39,7.61 -4.51,1.85 -8.97,5.19 -13.53,5.32 -19.64,0.56 -39.37,1.07 -58.91,-0.37 -6.25,-0.47 -14.18,-5.66 -17.68,-11.06 -21.98,-33.91 -42.89,-68.49 -64.21,-102.82 -10.54,-16.96 -25.26,-24.58 -46.13,-20.14 0,32.76 -0.99,65.25 0.77,97.58 0.39,7.08 9.6,15.04 16.59,19.96 5.53,3.89 14.03,3.35 20.95,5.57 2.57,0.82 4.41,3.89 6.59,5.93 -2.75,1.95 -5.48,5.58 -8.25,5.61 -39.33,0.34 -78.66,0.27 -117.99,-0.03 -2.71,-0.02 -5.4,-2.71 -8.1,-4.16 2.29,-2.52 4.1,-6.29 6.94,-7.37 38.9,-14.83 38.94,-14.74 38.95,-56.65 0,-53.89 -0.1,-107.79 0.02,-161.68 0.07,-34.68 -3.6,-44.32 -36.65,-48.1 -3.39,-0.39 -6.33,-4.83 -9.47,-7.38 2.92,-1.83 5.86,-5.28 8.75,-5.24 52.73,0.78 105.67,-0.56 158.11,3.9 39.28,3.35 62.46,32.68 63.17,68.9 0.5,24.9 -12.38,42.58 -31.47,56.29 -9.86,7.08 -20.9,12.51 -33.16,19.73z"/>
  <path class="fil0" d="M4095.19 3235.83c0.97,-36.63 -6.58,-69.92 -27.02,-99.75 -39.09,-57.06 -123.24,-57.61 -160.86,0.31 -36.92,56.84 -37.34,117.56 -9.79,177.85 16.64,36.42 47.07,56.09 88.33,56.57 41.03,0.48 70.59,-18.22 90.43,-53.52 14.43,-25.66 19.43,-53.43 18.91,-81.46zm-106.72 148.14c-93.87,0.05 -155.49,-59.87 -155.02,-150.73 0.47,-90.6 63.38,-153.06 154.25,-153.15 90.48,-0.08 154.4,63.3 154.46,153.18 0.06,89.99 -61.79,150.64 -153.69,150.7z"/>
  <path class="fil0" d="M5242.02 3234.42c0,36.95 -0.92,71.15 0.74,105.24 0.35,7.15 9.58,19.22 15.69,19.87 38.55,4.07 78.1,8.32 110.74,-20.08 9.18,-7.99 16.24,-18.36 24.51,-27.44 2.9,-3.18 6.47,-5.74 9.74,-8.59 1.86,1.16 3.72,2.32 5.57,3.48 -4.5,10.84 -9.01,21.67 -13.52,32.5 -15.9,38.24 -15.9,37.71 -57.61,37.5 -56.21,-0.28 -112.42,0.48 -168.63,0.39 -5.42,0 -10.83,-2.78 -16.25,-4.27 5.12,-3.09 9.88,-7.73 15.43,-9.01 26.26,-6.04 30.07,-9.95 30.16,-37.69 0.2,-61.74 0.17,-123.49 0.04,-185.23 -0.07,-31.58 -2.63,-34.23 -33.92,-41.31 -4.26,-0.96 -7.86,-4.77 -11.77,-7.27 3.86,-1.93 7.71,-5.53 11.59,-5.55 66.87,-0.32 133.74,-0.22 200.62,-0.15 2.17,0 4.34,0.56 7.41,0.99 4.54,21.76 9.03,43.3 13.52,64.84 -1.55,0.84 -3.11,1.68 -4.66,2.51 -3.1,-3.42 -7.41,-6.34 -9.09,-10.35 -12.72,-30.35 -35.85,-43.11 -68.01,-41.85 -13.47,0.53 -26.99,0.01 -40.47,0.41 -13.25,0.4 -21.42,7.46 -21.63,20.8 -0.48,31.35 -0.15,62.72 -0.15,97.33 23.28,-1.06 45.6,-0.94 67.62,-3.44 16.76,-1.9 18.13,-17.41 21.95,-30.38 1.42,-4.83 5.89,-8.76 8.97,-13.1 1.5,4.91 4.22,9.8 4.31,14.73 0.44,26.33 0.48,52.68 0.02,79.01 -0.08,4.82 -3.06,9.6 -4.7,14.4 -2.81,-3.93 -7.07,-7.5 -8.2,-11.86 -8.34,-32.45 -12.91,-36.3 -46.11,-36.43 -13.95,-0.05 -27.89,0 -43.91,0z"/>
  <path class="fil0" d="M4629.65 3093.63c-5.07,2.22 -9.94,5.37 -15.24,6.5 -27.81,5.91 -32.24,10.87 -32.55,39.68 -0.53,48.28 0.18,96.6 -1.53,144.84 -1.77,49.97 -31.34,88.45 -76.09,96.57 -57.17,10.38 -112.45,-5.45 -134.2,-57.48 -7.75,-18.54 -10.11,-40.2 -10.9,-60.6 -1.62,-41.5 -0.36,-83.1 -0.57,-124.65 -0.14,-27.85 -4.6,-32.6 -31.5,-38.51 -4.98,-1.1 -9.19,-5.72 -13.76,-8.71 4.88,-1.54 9.74,-4.34 14.63,-4.4 35.95,-0.4 71.91,-0.42 107.86,-0.05 4.19,0.04 8.35,3.23 12.52,4.95 -3.66,2.7 -6.95,6.89 -11.02,7.86 -34.41,8.25 -35.82,9.31 -35.41,45.14 0.6,51.61 -0.55,103.4 3.51,154.77 3.47,44.01 30.42,64.34 76.77,65.92 42.75,1.45 74.11,-21.55 80.7,-63.05 4.11,-25.86 3.76,-52.51 4.36,-78.83 0.67,-29.19 0.35,-58.4 0.08,-87.6 -0.23,-24.17 -5.89,-30.7 -29.38,-35.36 -3.85,-0.77 -8.05,-0.61 -11.51,-2.17 -2.51,-1.14 -4.07,-4.41 -6.05,-6.73 2.54,-1.68 5.07,-4.8 7.62,-4.82 33.03,-0.33 66.07,-0.22 99.1,-0.22 0.86,2.32 1.71,4.63 2.56,6.95z"/>
  <path class="fil0" d="M181.41 3247.27c-12.27,-35.55 -23.74,-68.79 -36.7,-106.32 -14.19,38.25 -26.54,71.57 -39.43,106.32l76.13 0zm130.7 127.81c-8.51,1.4 -12.16,2.5 -15.81,2.52 -35.37,0.12 -70.75,0.23 -106.12,-0.14 -4.31,-0.05 -8.58,-2.98 -12.87,-4.58 4.07,-2.61 7.83,-6.62 12.26,-7.6 24.94,-5.53 27.93,-9.91 20.14,-34.75 -6.19,-19.77 -12.65,-39.5 -20.14,-58.81 -1.68,-4.33 -7.98,-9.54 -12.35,-9.74 -22.43,-0.97 -44.95,-0.95 -67.39,-0.03 -4.6,0.19 -11.34,4.78 -13.07,9 -8.32,20.17 -15.71,40.75 -22.56,61.48 -6.36,19.26 -1.72,26.6 18.1,31.38 3.27,0.79 6.86,0.88 9.78,2.34 2.1,1.05 4.6,3.86 4.56,5.84 -0.04,1.84 -3.19,5.17 -5,5.18 -33.35,0.32 -66.7,0.23 -100.06,0.23 -0.52,-1.72 -1.05,-3.45 -1.58,-5.17 3.91,-2.51 7.55,-6.54 11.76,-7.24 20.87,-3.48 31.98,-17.37 39.41,-35.31 22.72,-54.87 45.26,-109.81 67.84,-164.73 9.81,-23.85 19.33,-47.8 29.46,-71.5 2.05,-4.79 6.24,-8.67 9.44,-12.96 3.61,4.46 8.74,8.37 10.6,13.47 26.44,72.65 52.88,145.3 78.32,218.3 9.21,26.44 21.31,48.18 52.15,52.84 3.58,0.54 6.59,4.85 13.13,9.98z"/>
  <path class="fil0" d="M1166.19 3086.5c3.7,20.4 7.73,41.83 11.27,63.33 0.42,2.58 -1.86,5.6 -2.89,8.42 -2.96,-1.82 -6.76,-3.02 -8.67,-5.61 -2.58,-3.53 -3.69,-8.11 -5.45,-12.24 -9.84,-22.95 -27.73,-35.52 -52.2,-36.5 -66,-2.62 -53.86,-4.9 -54.42,48.45 -0.59,57.25 -0.16,114.52 -0.12,171.77 0.02,29.29 3.71,33.84 31.76,39.87 3.3,0.71 6.86,0.96 9.77,2.45 2.07,1.07 4.6,3.96 4.47,5.86 -0.13,1.82 -3.17,4.14 -5.4,4.93 -2.51,0.89 -5.54,0.39 -8.35,0.39 -35.4,0.02 -70.8,0.21 -106.19,-0.2 -4.75,-0.06 -9.46,-3.19 -14.19,-4.89 4.16,-2.72 7.98,-6.83 12.53,-7.94 30.17,-7.33 32.85,-10.15 32.9,-40.64 0.1,-65.68 0.1,-131.35 -0.01,-197.04 -0.04,-22.33 -1.66,-23.52 -24.07,-23.94 -41.07,-0.77 -75.56,10.27 -94.56,50.66 -1.2,2.56 -5.2,3.82 -7.9,5.68 -1.42,-0.88 -2.84,-1.76 -4.27,-2.65 7.36,-24.05 14.71,-48.09 21.47,-70.16l264.52 0z"/>
  <path class="fil0" d="M2036.84 3086.48l264.12 0c3.73,19.33 8,40.06 11.49,60.91 0.57,3.43 -2.28,7.42 -3.56,11.15 -3,-2.69 -7.25,-4.8 -8.84,-8.16 -19.4,-41.06 -53.12,-56.94 -99.36,-46.94 -11.74,2.54 -11.18,11.19 -11.21,19.45 -0.21,42.64 -0.13,85.29 -0.11,127.94 0.01,26.93 -0.31,53.88 0.28,80.8 0.48,21.94 5.29,26.99 26.93,31.65 4.39,0.95 8.95,1.38 13.13,2.89 2.1,0.76 5.27,4.21 4.89,5.07 -1.12,2.49 -3.66,5.87 -5.88,6.06 -7.24,0.62 -14.58,-0.2 -21.88,-0.17 -30.89,0.12 -61.79,0.58 -92.68,0.28 -4.59,-0.05 -9.16,-3.5 -13.74,-5.38 3.85,-2.43 7.4,-6.04 11.6,-7.1 32.61,-8.24 35.02,-11.04 35.03,-44.45 0.02,-63.97 0.03,-127.94 -0.01,-191.92 -0.01,-23.75 -1.6,-25.06 -24.45,-25.59 -41.11,-0.95 -75.45,10.25 -94.75,50.35 -1.34,2.78 -5.97,3.99 -9.08,5.92 -1.07,-0.96 -2.15,-1.92 -3.22,-2.89 7.24,-23.71 14.47,-47.43 21.3,-69.87z"/>
  <path class="fil0" d="M4806.26 3296.42c3.16,6.03 7.09,11.79 9.34,18.14 8.98,25.48 22.23,46.41 50.58,53.94 44.91,11.93 79.9,-12.56 74.83,-55.58 -1.63,-13.85 -11.87,-29.24 -22.68,-38.87 -16.57,-14.76 -37.11,-25.05 -55.84,-37.42 -9.37,-6.19 -18.68,-12.49 -27.63,-19.24 -52.59,-39.63 -30.17,-106.32 16.45,-127.91 23.41,-10.84 47.56,-10.51 72.58,-6.24 34.92,5.96 34.99,5.23 38.21,40.17 0.72,7.83 2.3,15.59 2.66,23.42 0.12,2.68 -2.27,5.48 -3.51,8.23 -2.96,-1.88 -7.41,-3.1 -8.59,-5.76 -3.61,-8.17 -5.18,-17.26 -8.96,-25.33 -11.27,-24.04 -37.06,-35.57 -63.53,-29.13 -24.02,5.85 -40.54,25.95 -36.34,50.96 2.18,12.98 10.86,27.7 21.17,35.91 23.18,18.43 49.46,32.95 74.03,49.7 37.09,25.29 47.86,53.45 36.17,92.22 -11.34,37.6 -40.35,60.49 -81.91,59.49 -27.83,-0.66 -55.56,-6.63 -83.24,-10.82 -2.59,-0.39 -6.22,-4.97 -6.47,-7.85 -1.8,-21.64 -2.88,-43.34 -4.19,-65.02 2.29,-1 4.58,-2.01 6.87,-3.01z"/>
  <path class="fil0" d="M1680.94 3296.49c3.31,5.68 7.53,11.02 9.8,17.09 9.57,25.63 22.22,47.65 51.64,55.04 43.25,10.86 74.65,-10.27 75.19,-51.45 0.24,-18.36 -8.1,-32.72 -22.42,-43.05 -16.82,-12.14 -34.63,-22.91 -51.94,-34.39 -10.76,-7.14 -21.82,-13.92 -31.96,-21.85 -47.01,-36.81 -38.17,-104.05 16.56,-128.8 24.79,-11.21 50.13,-9.79 75.99,-5.14 30.25,5.44 30.26,5.13 33.32,35.64 1.14,11.45 2.54,22.86 3.82,34.29 -2.14,0.86 -4.29,1.71 -6.43,2.56 -2.84,-5.18 -6.68,-10.06 -8.37,-15.58 -10.23,-33.45 -29.54,-48.69 -60.66,-47.14 -20.68,1.03 -37.51,12.89 -43.96,30.99 -7.37,20.68 -3.96,39.74 13.93,53.08 26.06,19.42 53.86,36.5 80.94,54.55 28.17,18.77 42.75,43.94 37.07,78.6 -5.08,30.97 -20.01,56.44 -50.63,65.6 -20.25,6.07 -43.01,5.53 -64.56,4.97 -16.63,-0.44 -33.21,-5.21 -49.65,-8.8 -3.5,-0.76 -8.74,-4.53 -9,-7.31 -2.09,-22.08 -3.16,-44.26 -4.54,-66.4 1.95,-0.84 3.91,-1.67 5.86,-2.5z"/>
  <path class="fil0" d="M2716.58 3296.54c3.59,6.12 8.24,11.86 10.58,18.43 9.09,25.49 22.48,46.18 50.86,53.57 44.24,11.5 77.03,-11.97 75.39,-54.53 -0.69,-17.73 -9.95,-30.99 -23.62,-40.77 -17.32,-12.38 -35.67,-23.34 -53.44,-35.1 -10.29,-6.81 -20.53,-13.73 -30.43,-21.07 -49.27,-36.5 -33.12,-103.18 15.7,-127.04 23.72,-11.6 48.58,-11.16 74.14,-6.71 33.83,5.9 33.91,5.26 37.51,39.04 1.12,10.4 2.45,20.79 3.69,31.19 -1.96,0.98 -3.91,1.97 -5.87,2.96 -3.17,-5.28 -7.53,-10.17 -9.32,-15.88 -10.4,-33.12 -28.47,-47.79 -59.04,-46.96 -21.52,0.58 -38.75,12.4 -45.52,31.23 -7.25,20.16 -3.31,39.28 14.07,53.1 16.64,13.21 35.08,24.15 52.77,36.03 10.71,7.2 21.89,13.78 32.19,21.52 32.93,24.75 41.63,52.75 29.16,91.69 -10.63,33.2 -39.45,56.45 -76.04,55.67 -29.49,-0.63 -58.89,-6.57 -88.27,-10.63 -2.32,-0.32 -5.72,-4.23 -5.92,-6.69 -1.78,-22.14 -2.95,-44.32 -4.3,-66.5 1.9,-0.85 3.8,-1.7 5.71,-2.55z"/>
  <path class="fil0" d="M3157.04 3875.71c-0.32,-0.02 -0.63,-0.04 -0.95,-0.06 0,-5.04 0.4,-10.12 -0.07,-15.12 -3.45,-36.46 -27.8,-62.37 -61.17,-65.34 -37.44,-3.32 -66.86,16.45 -75.53,52.28 -3.12,12.9 -4.78,26.64 -4.2,39.87 1.94,44.34 25.03,69.98 63.71,72.74 43.87,3.13 66.72,-15.63 75.92,-62.7 1.39,-7.1 1.56,-14.44 2.29,-21.67zm-172.53 3.3c2.8,-14.78 3.81,-30.19 8.72,-44.24 16.94,-48.43 53.39,-69.08 108.95,-63.47 45.43,4.59 76.58,35.29 82.3,83.78 5.34,45.33 -3.09,87.49 -43.57,114.7 -33.79,22.73 -71.44,23.2 -107.19,3.65 -36.65,-20.04 -46.93,-54.99 -49.21,-94.42z"/>
  <path class="fil0" d="M3484.51 3876.22c-0.36,-0.03 -0.72,-0.06 -1.07,-0.09 0,-5.04 0.41,-10.13 -0.07,-15.12 -3.51,-37.17 -28.58,-63.51 -62.47,-65.88 -37.03,-2.6 -65.94,16.96 -74.22,51.88 -3.18,13.45 -4.81,27.78 -4.12,41.55 2.16,43.43 25.22,68.79 63.04,71.5 43.81,3.14 65.84,-14.34 75.85,-60.61 1.65,-7.61 2.07,-15.48 3.06,-23.23zm-173.37 4.16c3.3,-15.79 4.74,-32.27 10.25,-47.26 18.03,-48.96 56.17,-69.33 111.54,-61.41 45.22,6.47 74.84,38.29 79.16,86.92 3.93,44.17 -4.59,84.97 -44.13,111.25 -33.45,22.23 -70.3,22.86 -105.73,4.23 -37.04,-19.48 -47.84,-54.22 -51.09,-93.73z"/>
  <path class="fil0" d="M1485.3 3094.9c-5.75,1.87 -11.39,4.26 -17.27,5.51 -23.37,4.94 -29.25,11.35 -29.33,35.39 -0.22,63.97 -0.18,127.94 0,191.91 0.08,25.78 4.56,30.8 30.01,36.08 2.75,0.57 5.91,0.55 8.13,1.98 2.8,1.8 4.85,4.79 7.22,7.27 -2.64,1.54 -5.17,3.33 -7.97,4.5 -1.43,0.61 -3.32,0.11 -5.01,0.11 -35.95,-0.01 -71.89,0.12 -107.84,-0.25 -4.35,-0.04 -8.68,-2.75 -13.02,-4.23 3.9,-2.91 7.41,-7.38 11.76,-8.47 31.23,-7.81 33.03,-9.71 33.06,-42.13 0.05,-61.73 0.09,-123.46 -0.04,-185.19 -0.07,-26.76 -4.68,-31.68 -30.72,-37.29 -5.06,-1.09 -9.41,-5.46 -14.09,-8.31 5.24,-1.7 10.45,-4.79 15.71,-4.86 34.23,-0.44 68.48,-0.29 102.72,-0.18 5.19,0.02 10.38,0.88 15.56,1.35 0.37,2.27 0.75,4.54 1.12,6.81z"/>
  <path class="fil0" d="M2201.94 3894.71l62.59 0c-10.26,-29.59 -19.84,-57.21 -30.66,-88.42 -11.5,31.85 -21.51,59.58 -31.93,88.42zm122.74 83.9c-29.15,2.73 -29.05,2.69 -38.07,-21.57 -4.62,-12.43 -6.35,-29.55 -15.4,-35.7 -9.35,-6.33 -26,-2.13 -39.46,-2.17 -37.67,-0.12 -37.66,-0.04 -51.16,34.77 -0.61,1.57 -1.79,3.01 -2.03,4.61 -3.05,20.03 -14.81,25.68 -35.2,19.49 11.01,-29.54 22.06,-59.21 33.16,-88.86 12.77,-34.14 25.92,-68.14 38.18,-102.46 3.61,-10.1 9.94,-12.29 19.29,-11.57 8.03,0.63 16.63,-2.17 20.65,9.13 22.92,64.37 46.29,128.57 70.04,194.33z"/>
  <polygon class="fil0" points="2048.76,3799.75 1982.06,3799.75 1982.06,3979.04 1953.49,3979.04 1953.49,3800.59 1884.65,3800.59 1884.65,3776.31 2048.76,3776.31 "/>
  <polygon class="fil0" points="2865.76,3776.67 2865.76,3799.55 2798.91,3799.55 2798.91,3978.59 2769.67,3978.59 2769.67,3800.73 2701.78,3800.73 2701.78,3776.67 "/>
  <polygon class="fil0" points="2516.45,3979.37 2488.47,3979.37 2488.47,3801.01 2420.49,3801.01 2420.49,3776.33 2584.66,3776.33 2584.66,3799.37 2516.45,3799.37 "/>
  <path class="fil0" d="M2510.6 3131.35c-2.73,-0.37 -4.81,-0.88 -6.9,-0.91 -12.89,-0.21 -21.54,-6.02 -24.17,-18.93 -2.43,-11.86 1.78,-21.64 12.83,-26.49 11.79,-5.18 23.68,-3.36 32.22,6.88 15.71,18.8 14.25,41.09 4.24,60.23 -8.74,16.72 -23.91,30.19 -37.06,44.34 -2.08,2.24 -8.51,0.45 -12.93,0.52 1.76,-3.61 2.61,-8.32 5.44,-10.63 17.29,-14.13 29.69,-30.25 26.33,-55.01z"/>
 </g>
</svg>
