<?xml version="1.0" encoding="UTF-8"?>
<!DOCTYPE svg PUBLIC "-//W3C//DTD SVG 1.1//EN" "http://www.w3.org/Graphics/SVG/1.1/DTD/svg11.dtd">
<!-- Creator: CorelDRAW (Wersja próbna) -->
<svg xmlns="http://www.w3.org/2000/svg" xml:space="preserve" width="1000px" height="737px" version="1.1" style="shape-rendering:geometricPrecision; text-rendering:geometricPrecision; image-rendering:optimizeQuality; fill-rule:evenodd; clip-rule:evenodd"
viewBox="0 0 878.72 647.82"
 xmlns:xlink="http://www.w3.org/1999/xlink"
 xmlns:xodm="http://www.corel.com/coreldraw/odm/2003">
 <defs>
  <style type="text/css">
   <![CDATA[
    .str0 {stroke:#2B2A29;stroke-width:0.34;stroke-miterlimit:22.9256}
    .fil0 {fill:#FEFEFE;fill-rule:nonzero}
   ]]>
  </style>

 </defs>
 <g id="Warstwa_x0020_1">
  <metadata id="CorelCorpID_0Corel-Layer"/>
  <path class="fil0 str0" d="M313.78 325.66c10.4,-4.43 20.41,-8.86 30.62,-12.77 1.07,-0.41 4.09,1.87 4.87,3.52 11.4,24.1 29.48,40.84 54.8,49.18 34.1,11.23 65.75,5.88 92.5,-18.11 26.56,-23.8 35.6,-54.59 28.05,-89.34 -7.81,-35.97 -29.96,-60.19 -64.28,-73.35 -1.84,-0.71 -3.64,-1.51 -6.4,-2.65 7.34,-9.72 14.13,-18.83 21.05,-27.83 2.74,-3.55 5.91,-1.44 8.83,-0.15 30.66,13.57 53.49,35.3 67.93,65.61 26.05,54.69 11.62,121.68 -35.94,158.41 -42.11,32.52 -88.55,37.78 -137.47,15.76 -29.81,-13.42 -51.68,-36.5 -64.56,-68.28z"/>
  <path class="fil0 str0" d="M564.93 2.34c-4.31,6.56 -9.34,12.77 -12.77,19.76 -5.14,10.44 -12.45,13.38 -24.12,13.23 -61.55,-0.76 -123.11,-0.46 -184.66,-0.53 -7.98,-0.01 -7.94,-0.03 -7.75,-8.19 0.16,-6.93 0.43,-13.86 0.22,-20.78 -0.13,-4.31 1.46,-5.73 5.66,-5.66 10.8,0.19 21.61,0.06 32.41,0.06 60.74,0 121.47,0 182.21,0l7.64 0c0.39,0.71 0.77,1.41 1.16,2.11z"/>
  <path class="fil0 str0" d="M529.16 53.4c-1.19,1.79 -2.31,3.64 -3.59,5.38 -29.03,39.56 -58.13,79.08 -87.05,118.73 -2.69,3.7 -5.6,5.24 -10.14,5.24 -9.97,0.01 -19.95,0.61 -29.93,0.78 -2.24,0.04 -4.49,-0.65 -8.35,-1.26 6.26,-8.58 11.53,-15.92 16.91,-23.19 25.47,-34.35 51,-68.65 76.37,-103.07 2.28,-3.09 4.49,-4.53 8.48,-4.41 10.18,0.3 20.38,0.02 30.57,-0.03 1.96,0 3.92,0 5.87,0 0.29,0.61 0.58,1.22 0.86,1.83z"/>
  <path class="fil0 str0" d="M559.96 502.63c-0.89,0.32 -1.76,0.75 -2.68,0.95 -3.51,0.76 -4.33,1.58 -4.38,5.12 -0.07,4.65 -0.01,9.3 0.02,13.95 0,0.25 0.15,0.51 0.29,0.92l25.47 0c0,-5.66 0.16,-11.27 -0.07,-16.86 -0.1,-2.53 -2.55,-2.68 -4.5,-3.18 -0.77,-0.2 -1.45,-0.78 -2.17,-1.19 0.81,-0.32 1.61,-0.91 2.42,-0.92 5.65,-0.08 11.31,-0.08 16.96,-0.01 0.67,0 1.33,0.52 1.99,0.8 -0.58,0.44 -1.11,1.12 -1.77,1.28 -5.35,1.27 -5.74,1.69 -5.75,7.12 -0.02,9.66 -0.03,19.33 -0.01,28.99 0.01,5.07 0.62,5.76 5.42,6.89 0.76,0.18 1.41,0.81 2.11,1.22 -0.74,0.31 -1.47,0.86 -2.21,0.87 -5.66,0.08 -11.32,0.09 -16.97,0.01 -0.73,0 -1.45,-0.58 -2.18,-0.89 0.63,-0.4 1.2,-0.99 1.88,-1.16 4.77,-1.22 5.09,-1.56 5.11,-6.47 0.02,-4.55 0,-9.1 0,-13.91l-25.87 0c0,5.73 -0.1,11.45 0.11,17.15 0.04,0.91 1.4,1.95 2.37,2.59 0.78,0.52 1.94,0.45 2.87,0.79 0.5,0.19 0.89,0.69 1.33,1.05 -0.48,0.3 -0.95,0.85 -1.43,0.85 -6.11,0.06 -12.23,0.06 -18.34,0.01 -0.52,0 -1.03,-0.49 -1.54,-0.75 0.48,-0.41 0.91,-1.03 1.47,-1.19 5.92,-1.75 6.05,-1.91 6.05,-8.06 0,-9.39 0.02,-18.78 -0.01,-28.17 -0.02,-5.2 -0.53,-5.73 -5.69,-6.92 -0.67,-0.15 -1.22,-0.81 -1.83,-1.23 0.65,-0.3 1.3,-0.86 1.95,-0.87 5.93,-0.06 11.86,-0.05 17.78,-0.03 0.51,0.01 1.01,0.19 1.52,0.29 0.09,0.32 0.18,0.64 0.28,0.96z"/>
  <path class="fil0 str0" d="M90.51 524.35c2.42,0 4.52,0.1 6.6,-0.02 5.09,-0.29 8.02,-3.14 8.49,-8.21 0.13,-1.44 0.16,-2.91 0.05,-4.35 -0.53,-6.77 -7.46,-10.54 -13.42,-7.23 -0.8,0.44 -1.62,1.67 -1.64,2.55 -0.15,5.61 -0.08,11.23 -0.08,17.26zm12.32 1.22c4.07,6.03 7.88,12.13 12.23,17.81 1.25,1.64 4.09,2.05 6.17,3.08 0.66,0.32 1.24,0.81 1.85,1.23 -0.73,0.3 -1.46,0.84 -2.2,0.87 -3.18,0.09 -6.39,0.17 -9.56,-0.07 -1.02,-0.07 -2.3,-0.91 -2.87,-1.79 -3.57,-5.51 -6.97,-11.12 -10.43,-16.7 -1.71,-2.75 -4.1,-3.99 -7.49,-3.27 0,5.32 -0.16,10.6 0.13,15.85 0.06,1.15 1.55,2.44 2.69,3.24 0.9,0.63 2.28,0.54 3.4,0.9 0.42,0.14 0.72,0.64 1.07,0.97 -0.44,0.31 -0.89,0.9 -1.34,0.91 -6.38,0.05 -12.77,0.04 -19.16,-0.01 -0.44,0 -0.87,-0.44 -1.31,-0.67 0.37,-0.41 0.66,-1.02 1.12,-1.2 6.32,-2.41 6.33,-2.39 6.33,-9.2 0,-8.75 -0.02,-17.5 0,-26.25 0.01,-5.63 -0.58,-7.2 -5.95,-7.81 -0.55,-0.07 -1.03,-0.79 -1.54,-1.2 0.48,-0.3 0.95,-0.86 1.42,-0.85 8.57,0.12 17.16,-0.09 25.68,0.63 6.38,0.55 10.14,5.31 10.26,11.19 0.08,4.04 -2.01,6.91 -5.11,9.14 -1.6,1.15 -3.4,2.03 -5.39,3.2z"/>
  <path class="fil0 str0" d="M665.17 525.6c0.16,-5.95 -1.07,-11.35 -4.39,-16.2 -6.34,-9.26 -20.01,-9.35 -26.12,0.05 -5.99,9.23 -6.06,19.09 -1.59,28.88 2.7,5.91 7.65,9.11 14.35,9.19 6.66,0.07 11.46,-2.96 14.68,-8.69 2.34,-4.17 3.16,-8.68 3.07,-13.23zm-17.33 24.05c-15.24,0.01 -25.25,-9.72 -25.17,-24.47 0.08,-14.71 10.29,-24.86 25.05,-24.87 14.69,-0.01 25.07,10.28 25.08,24.87 0.01,14.62 -10.04,24.46 -24.96,24.47z"/>
  <path class="fil0 str0" d="M851.39 525.37c0,6 -0.15,11.55 0.12,17.09 0.06,1.16 1.56,3.12 2.55,3.22 6.26,0.67 12.68,1.36 17.98,-3.26 1.49,-1.29 2.64,-2.98 3.98,-4.45 0.47,-0.52 1.05,-0.93 1.58,-1.4 0.3,0.19 0.61,0.38 0.91,0.57 -0.73,1.76 -1.47,3.52 -2.2,5.28 -2.58,6.21 -2.58,6.12 -9.35,6.09 -9.13,-0.05 -18.26,0.07 -27.39,0.06 -0.87,0 -1.75,-0.45 -2.63,-0.7 0.83,-0.5 1.6,-1.25 2.5,-1.46 4.27,-0.98 4.88,-1.61 4.9,-6.12 0.03,-10.02 0.03,-20.05 0,-30.08 -0.01,-5.12 -0.42,-5.55 -5.5,-6.7 -0.69,-0.16 -1.28,-0.78 -1.91,-1.18 0.62,-0.32 1.25,-0.9 1.88,-0.9 10.86,-0.06 21.72,-0.04 32.57,-0.03 0.36,0 0.71,0.09 1.21,0.16 0.73,3.53 1.46,7.03 2.19,10.53 -0.25,0.14 -0.5,0.27 -0.75,0.41 -0.51,-0.56 -1.21,-1.03 -1.48,-1.68 -2.07,-4.93 -5.82,-7 -11.04,-6.8 -2.19,0.09 -4.39,0 -6.57,0.07 -2.16,0.06 -3.48,1.21 -3.52,3.37 -0.08,5.1 -0.02,10.19 -0.02,15.81 3.78,-0.17 7.4,-0.15 10.98,-0.56 2.72,-0.31 2.94,-2.83 3.56,-4.93 0.23,-0.79 0.96,-1.42 1.46,-2.13 0.24,0.8 0.69,1.59 0.7,2.39 0.07,4.28 0.08,8.56 0,12.83 -0.01,0.79 -0.49,1.56 -0.76,2.34 -0.46,-0.64 -1.15,-1.22 -1.33,-1.93 -1.36,-5.26 -2.1,-5.89 -7.49,-5.91 -2.26,-0.01 -4.53,0 -7.13,0z"/>
  <path class="fil0 str0" d="M751.96 502.51c-0.83,0.36 -1.62,0.87 -2.48,1.05 -4.51,0.96 -5.23,1.77 -5.29,6.45 -0.08,7.84 0.03,15.68 -0.24,23.52 -0.29,8.11 -5.09,14.36 -12.36,15.68 -9.28,1.68 -18.26,-0.89 -21.79,-9.34 -1.26,-3.01 -1.64,-6.53 -1.77,-9.84 -0.26,-6.74 -0.06,-13.49 -0.09,-20.24 -0.02,-4.52 -0.75,-5.29 -5.12,-6.25 -0.81,-0.18 -1.49,-0.93 -2.23,-1.42 0.79,-0.24 1.58,-0.7 2.37,-0.71 5.84,-0.06 11.68,-0.07 17.52,-0.01 0.68,0.01 1.35,0.53 2.03,0.81 -0.59,0.43 -1.13,1.11 -1.79,1.27 -5.59,1.34 -5.82,1.51 -5.75,7.33 0.1,8.38 -0.09,16.79 0.57,25.13 0.57,7.15 4.94,10.45 12.47,10.71 6.94,0.23 12.03,-3.5 13.1,-10.24 0.67,-4.2 0.61,-8.53 0.71,-12.8 0.11,-4.74 0.06,-9.48 0.01,-14.23 -0.03,-3.92 -0.95,-4.98 -4.77,-5.74 -0.62,-0.12 -1.31,-0.1 -1.87,-0.35 -0.41,-0.18 -0.66,-0.72 -0.98,-1.09 0.41,-0.27 0.82,-0.78 1.24,-0.79 5.36,-0.05 10.73,-0.03 16.09,-0.03 0.14,0.38 0.28,0.75 0.42,1.13z"/>
  <path class="fil0 str0" d="M29.66 527.46c-2,-5.78 -3.86,-11.17 -5.96,-17.27 -2.31,6.21 -4.31,11.62 -6.41,17.27l12.37 0zm21.22 20.75c-1.38,0.23 -1.98,0.41 -2.57,0.41 -5.74,0.02 -11.49,0.04 -17.23,-0.02 -0.7,-0.01 -1.39,-0.49 -2.09,-0.75 0.66,-0.42 1.27,-1.07 1.99,-1.23 4.05,-0.9 4.54,-1.61 3.27,-5.64 -1,-3.22 -2.05,-6.42 -3.27,-9.55 -0.27,-0.71 -1.29,-1.55 -2,-1.59 -3.65,-0.15 -7.3,-0.15 -10.95,0 -0.74,0.03 -1.84,0.78 -2.12,1.46 -1.35,3.28 -2.55,6.62 -3.66,9.98 -1.04,3.13 -0.28,4.32 2.94,5.1 0.53,0.13 1.11,0.14 1.58,0.38 0.34,0.17 0.75,0.63 0.74,0.95 0,0.3 -0.51,0.84 -0.81,0.84 -5.41,0.05 -10.83,0.04 -16.24,0.04 -0.09,-0.28 -0.18,-0.56 -0.26,-0.84 0.63,-0.41 1.22,-1.07 1.91,-1.18 3.39,-0.56 5.19,-2.82 6.4,-5.73 3.69,-8.91 7.35,-17.83 11.01,-26.75 1.6,-3.87 3.14,-7.76 4.79,-11.61 0.33,-0.78 1.01,-1.41 1.53,-2.11 0.59,0.73 1.42,1.36 1.72,2.19 4.29,11.8 8.59,23.59 12.72,35.45 1.49,4.29 3.46,7.82 8.47,8.58 0.58,0.09 1.07,0.79 2.13,1.62z"/>
  <path class="fil0 str0" d="M189.56 501.35c0.6,3.31 1.26,6.79 1.83,10.28 0.07,0.42 -0.3,0.91 -0.47,1.37 -0.48,-0.3 -1.09,-0.49 -1.4,-0.91 -0.42,-0.57 -0.6,-1.32 -0.89,-1.99 -1.6,-3.72 -4.5,-5.77 -8.47,-5.92 -10.72,-0.43 -8.75,-0.8 -8.84,7.86 -0.1,9.3 -0.03,18.6 -0.02,27.89 0,4.76 0.6,5.5 5.16,6.48 0.53,0.11 1.11,0.15 1.58,0.4 0.34,0.17 0.75,0.64 0.73,0.95 -0.02,0.29 -0.52,0.67 -0.88,0.8 -0.41,0.14 -0.9,0.06 -1.36,0.06 -5.74,0 -11.49,0.04 -17.24,-0.03 -0.77,-0.01 -1.53,-0.52 -2.3,-0.79 0.67,-0.45 1.29,-1.11 2.03,-1.29 4.9,-1.19 5.34,-1.65 5.34,-6.6 0.02,-10.67 0.02,-21.33 0,-32 0,-3.62 -0.27,-3.82 -3.91,-3.89 -6.66,-0.12 -12.26,1.67 -15.35,8.23 -0.19,0.42 -0.84,0.62 -1.28,0.92 -0.23,-0.14 -0.46,-0.28 -0.7,-0.43 1.2,-3.9 2.39,-7.81 3.49,-11.39l42.95 0z"/>
  <path class="fil0 str0" d="M330.94 501.35l42.89 0c0.6,3.14 1.29,6.5 1.86,9.89 0.09,0.55 -0.37,1.2 -0.58,1.81 -0.48,-0.44 -1.17,-0.78 -1.43,-1.33 -3.15,-6.66 -8.63,-9.24 -16.14,-7.62 -1.9,0.41 -1.81,1.82 -1.82,3.16 -0.03,6.92 -0.02,13.85 -0.01,20.77 0,4.38 -0.05,8.75 0.04,13.12 0.08,3.57 0.86,4.39 4.37,5.14 0.72,0.16 1.46,0.23 2.14,0.47 0.34,0.13 0.85,0.69 0.79,0.83 -0.18,0.4 -0.59,0.95 -0.96,0.98 -1.17,0.1 -2.36,-0.03 -3.55,-0.03 -5.01,0.02 -10.03,0.1 -15.05,0.05 -0.74,-0.01 -1.48,-0.57 -2.23,-0.88 0.63,-0.39 1.2,-0.98 1.89,-1.15 5.29,-1.34 5.68,-1.79 5.68,-7.22 0.01,-10.38 0.01,-20.77 0,-31.16 0,-3.86 -0.26,-4.07 -3.97,-4.15 -6.67,-0.16 -12.25,1.66 -15.38,8.17 -0.22,0.45 -0.97,0.65 -1.48,0.96 -0.17,-0.15 -0.35,-0.31 -0.52,-0.47 1.17,-3.85 2.35,-7.7 3.46,-11.34z"/>
  <path class="fil0 str0" d="M780.63 535.44c0.52,0.98 1.15,1.91 1.52,2.94 1.46,4.14 3.61,7.54 8.21,8.76 7.3,1.94 12.98,-2.04 12.15,-9.02 -0.26,-2.25 -1.92,-4.75 -3.68,-6.32 -2.69,-2.39 -6.03,-4.06 -9.07,-6.07 -1.52,-1.01 -3.03,-2.03 -4.48,-3.13 -8.54,-6.43 -4.9,-17.26 2.67,-20.77 3.8,-1.76 7.72,-1.7 11.78,-1.01 5.67,0.97 5.69,0.85 6.21,6.52 0.11,1.27 0.37,2.53 0.43,3.81 0.02,0.43 -0.37,0.89 -0.57,1.33 -0.48,-0.3 -1.2,-0.5 -1.39,-0.93 -0.59,-1.33 -0.85,-2.8 -1.46,-4.12 -1.83,-3.9 -6.02,-5.77 -10.32,-4.73 -3.9,0.95 -6.58,4.22 -5.9,8.28 0.36,2.11 1.77,4.5 3.44,5.83 3.76,2.99 8.03,5.35 12.02,8.07 6.02,4.11 7.77,8.68 5.87,14.97 -1.84,6.11 -6.55,9.83 -13.3,9.67 -4.51,-0.11 -9.02,-1.08 -13.51,-1.76 -0.42,-0.07 -1.01,-0.81 -1.05,-1.28 -0.3,-3.51 -0.47,-7.03 -0.68,-10.55 0.37,-0.17 0.74,-0.33 1.11,-0.49z"/>
  <path class="fil0 str0" d="M273.15 535.45c0.54,0.92 1.22,1.79 1.59,2.77 1.55,4.17 3.61,7.74 8.38,8.94 7.03,1.76 12.12,-1.67 12.21,-8.35 0.04,-2.98 -1.31,-5.32 -3.64,-6.99 -2.73,-1.98 -5.62,-3.72 -8.43,-5.59 -1.75,-1.16 -3.54,-2.26 -5.19,-3.55 -7.64,-5.97 -6.2,-16.89 2.69,-20.91 4.02,-1.82 8.14,-1.59 12.34,-0.84 4.91,0.89 4.91,0.84 5.41,5.79 0.18,1.86 0.41,3.71 0.62,5.57 -0.35,0.14 -0.7,0.28 -1.05,0.42 -0.46,-0.85 -1.08,-1.64 -1.35,-2.54 -1.67,-5.43 -4.8,-7.9 -9.86,-7.65 -3.35,0.17 -6.09,2.09 -7.13,5.03 -1.2,3.36 -0.65,6.46 2.26,8.62 4.23,3.16 8.74,5.93 13.14,8.86 4.58,3.05 6.94,7.13 6.02,12.76 -0.82,5.03 -3.25,9.17 -8.22,10.66 -3.29,0.98 -6.98,0.89 -10.48,0.8 -2.7,-0.07 -5.4,-0.84 -8.07,-1.43 -0.56,-0.12 -1.42,-0.73 -1.46,-1.18 -0.34,-3.59 -0.51,-7.19 -0.73,-10.79 0.31,-0.13 0.63,-0.27 0.95,-0.4z"/>
  <path class="fil0 str0" d="M441.31 535.46c0.59,0.99 1.34,1.92 1.72,2.99 1.48,4.14 3.65,7.5 8.26,8.7 7.18,1.87 12.51,-1.95 12.24,-8.86 -0.11,-2.88 -1.61,-5.03 -3.83,-6.62 -2.82,-2.01 -5.8,-3.79 -8.68,-5.7 -1.67,-1.1 -3.33,-2.23 -4.94,-3.42 -8,-5.93 -5.38,-16.75 2.55,-20.63 3.85,-1.88 7.88,-1.81 12.04,-1.09 5.49,0.96 5.5,0.86 6.09,6.34 0.18,1.69 0.39,3.38 0.6,5.07 -0.32,0.16 -0.64,0.32 -0.96,0.48 -0.51,-0.86 -1.22,-1.65 -1.51,-2.58 -1.69,-5.38 -4.62,-7.76 -9.59,-7.63 -3.49,0.1 -6.29,2.02 -7.39,5.07 -1.18,3.28 -0.54,6.38 2.29,8.63 2.7,2.14 5.69,3.92 8.56,5.85 1.74,1.17 3.56,2.24 5.23,3.49 5.35,4.02 6.76,8.57 4.74,14.89 -1.73,5.39 -6.41,9.17 -12.35,9.04 -4.79,-0.1 -9.56,-1.07 -14.33,-1.73 -0.38,-0.05 -0.93,-0.68 -0.97,-1.08 -0.28,-3.6 -0.47,-7.2 -0.69,-10.8 0.3,-0.14 0.61,-0.28 0.92,-0.41z"/>
  <path class="fil0 str0" d="M512.83 629.5c-0.05,0 -0.1,-0.01 -0.15,-0.01 0,-0.82 0.07,-1.64 -0.01,-2.45 -0.56,-5.92 -4.51,-10.13 -9.93,-10.61 -6.08,-0.54 -10.86,2.67 -12.27,8.48 -0.51,2.1 -0.77,4.33 -0.68,6.48 0.31,7.2 4.06,11.36 10.34,11.81 7.13,0.51 10.84,-2.54 12.33,-10.18 0.23,-1.15 0.26,-2.35 0.37,-3.52zm-28.01 0.54c0.45,-2.4 0.62,-4.91 1.42,-7.19 2.75,-7.86 8.66,-11.21 17.69,-10.3 7.37,0.74 12.43,5.73 13.36,13.6 0.87,7.36 -0.5,14.21 -7.07,18.63 -5.49,3.69 -11.6,3.76 -17.41,0.59 -5.95,-3.26 -7.62,-8.93 -7.99,-15.33z"/>
  <path class="fil0 str0" d="M566.01 629.58c-0.06,0 -0.12,-0.01 -0.18,-0.01 0,-0.82 0.07,-1.65 -0.01,-2.46 -0.57,-6.03 -4.64,-10.31 -10.14,-10.69 -6.01,-0.43 -10.71,2.75 -12.05,8.42 -0.52,2.19 -0.78,4.51 -0.67,6.75 0.35,7.05 4.09,11.17 10.23,11.61 7.12,0.51 10.7,-2.33 12.32,-9.84 0.27,-1.24 0.34,-2.52 0.5,-3.78zm-28.15 0.68c0.53,-2.57 0.77,-5.24 1.66,-7.67 2.93,-7.96 9.12,-11.26 18.11,-9.98 7.35,1.05 12.16,6.22 12.86,14.12 0.63,7.17 -0.75,13.79 -7.17,18.06 -5.43,3.61 -11.41,3.71 -17.17,0.69 -6.01,-3.16 -7.76,-8.81 -8.29,-15.22z"/>
  <path class="fil0 str0" d="M241.38 502.71c-0.93,0.31 -1.85,0.7 -2.8,0.9 -3.8,0.8 -4.75,1.84 -4.77,5.74 -0.03,10.39 -0.03,20.78 0,31.17 0.02,4.18 0.74,5 4.88,5.86 0.44,0.09 0.95,0.09 1.32,0.32 0.45,0.29 0.78,0.78 1.17,1.18 -0.43,0.25 -0.84,0.54 -1.3,0.73 -0.23,0.1 -0.54,0.02 -0.81,0.02 -5.84,-0.01 -11.67,0.02 -17.51,-0.04 -0.71,-0.01 -1.41,-0.45 -2.12,-0.69 0.64,-0.47 1.21,-1.2 1.92,-1.38 5.07,-1.26 5.36,-1.57 5.36,-6.84 0.01,-10.02 0.02,-20.04 0,-30.07 -0.01,-4.34 -0.76,-5.14 -4.99,-6.05 -0.82,-0.18 -1.53,-0.89 -2.29,-1.35 0.85,-0.28 1.7,-0.78 2.55,-0.79 5.56,-0.07 11.12,-0.05 16.68,-0.03 0.84,0 1.69,0.14 2.53,0.22 0.06,0.37 0.12,0.74 0.18,1.1z"/>
  <path class="fil0 str0" d="M357.75 632.59l10.16 0c-1.67,-4.81 -3.22,-9.29 -4.98,-14.36 -1.87,5.17 -3.49,9.67 -5.18,14.36zm19.93 13.62c-4.74,0.44 -4.72,0.44 -6.19,-3.5 -0.75,-2.02 -1.03,-4.8 -2.5,-5.8 -1.51,-1.03 -4.22,-0.35 -6.4,-0.35 -6.12,-0.02 -6.12,-0.01 -8.31,5.64 -0.1,0.26 -0.29,0.49 -0.33,0.75 -0.5,3.26 -2.4,4.17 -5.72,3.17 1.79,-4.8 3.59,-9.62 5.39,-14.43 2.07,-5.55 4.21,-11.07 6.2,-16.64 0.58,-1.64 1.61,-2 3.13,-1.88 1.31,0.1 2.7,-0.35 3.35,1.48 3.72,10.46 7.52,20.88 11.38,31.56z"/>
  <polygon class="fil0 str0" points="332.87,617.17 322.04,617.17 322.04,646.28 317.4,646.28 317.4,617.3 306.23,617.3 306.23,613.36 332.87,613.36 "/>
  <polygon class="fil0 str0" points="465.54,613.42 465.54,617.13 454.68,617.13 454.68,646.21 449.93,646.21 449.93,617.33 438.91,617.33 438.91,613.42 "/>
  <polygon class="fil0 str0" points="408.82,646.33 404.27,646.33 404.27,617.37 393.23,617.37 393.23,613.36 419.89,613.36 419.89,617.11 408.82,617.11 "/>
  <path class="fil0 str0" d="M407.87 508.63c-0.45,-0.06 -0.78,-0.14 -1.12,-0.14 -2.1,-0.04 -3.5,-0.98 -3.93,-3.08 -0.39,-1.93 0.29,-3.51 2.08,-4.3 1.92,-0.84 3.85,-0.55 5.24,1.12 2.55,3.05 2.31,6.67 0.68,9.78 -1.41,2.71 -3.88,4.9 -6.01,7.2 -0.34,0.36 -1.38,0.07 -2.1,0.08 0.28,-0.58 0.42,-1.35 0.88,-1.72 2.81,-2.3 4.82,-4.92 4.28,-8.94z"/>
 </g>
</svg>
